<?xml version="1.0" encoding="utf-8"?>
<!-- Generator: Adobe Illustrator 26.3.1, SVG Export Plug-In . SVG Version: 6.00 Build 0)  -->
<svg version="1.1" xmlns="http://www.w3.org/2000/svg" xmlns:xlink="http://www.w3.org/1999/xlink" x="0px" y="0px"
	 viewBox="0 0 3600 3600" style="enable-background:new 0 0 3600 3600;" xml:space="preserve">
<style type="text/css">
	.st0{display:none;}
	.st1{display:inline;}
	.st2{fill:#FFFFFF;}
</style>
<g id="Extras" class="st0">
	<g class="st1">
		<path d="M3446.1,1490L3446.1,1490c-22.5-83.3-56.6-163.2-101.5-237.6l-0.2-0.3c-44.7-74-99.4-141.3-162.6-200.2
			c-62.4-58.1-134.3-109.3-213.8-152c-80.2-43-168.4-75.6-262-96.9c-90.7-20.6-188.8-31-291.6-31H1086l-99.7-258.7h-467l-230,464.9
			c-63.8,129-95.1,226-103.1,321.1c-51.4,86.8-73.3,189-63.3,295.7c1.1,26.8,4.3,52.4,9.9,77.9l1.5,56.5
			c4.6,169.5,68.3,330.4,179.6,454.5l9.9,27.7c19.6,55.1,48.2,99.8,71.2,135.7l0.1,0.2c4.1,6.3,7.9,12.3,11.5,18.1l3.2,4.9l1.2,1.9
			c51.8,75.8,123.3,145.4,212.5,207l36.8,51.5c68.4,95.6,155.5,168.1,259,215.6c43.5,19.9,90.7,35.6,140.6,46.7l31.9,22.9
			c88.8,63.9,200.2,105.9,322.1,121.5c36.4,4.7,73.9,7,111.4,7c10,0,20.1-0.2,30.2-0.5l70.3,16.7c73.3,17.5,140.9,25.9,206.6,25.9
			c44.6,0,88.6-4.1,130.7-12.2c14-2.7,28-5.8,41.7-9.4l34.6,3.8c22.5,2.5,45.3,3.7,67.9,3.7c63.7,0,127.3-9.8,189.1-29.2
			c78.7-24.7,152-63.8,217.8-116.4c64.7-51.6,118.7-113.6,160.8-184c41.7-70,69.6-145.1,82.7-223.4c8.4-32.2,13.8-62.3,19.1-91.3
			c13.5-75.1,20.1-91,29.4-97.2c95.9-58.6,248.1-56.7,395.3-54.9l14.5,0.2l177.5,6.9l35.5-162.5c6.9-31.4,14.2-69.8,21.9-114
			c7.8-44.6,14.4-89.4,19.8-133.2c6-49.2,8.9-89.8,8.9-124.2C3479.5,1659.4,3468.3,1572.2,3446.1,1490z"/>
		<g>
			<g>
				<g>
					<g>
						<path class="st2" d="M2072.7,2034.7l254.9-526h69.7l254.9,526H2072.7z M2169.8,1978.9h384.8l-192.2-402.4L2169.8,1978.9z"/>
					</g>
					<path class="st2" d="M1063.6,2034.7v-31.5l59-21.6c4.6-1.7,8.1-3.9,10.4-6.4c2.3-2.6,3.4-6.6,3.4-11.9v-384.1
						c0-5.1-1.4-9-4.1-11.6c-2.7-2.6-6-4.5-9.9-5.6l-59-21.6v-31.5h267.7v31.5l-59,21.6c-3.9,1.5-7.3,3.4-10.1,6.1
						c-2.8,2.6-4.2,6.3-4.2,11.2v384c0,5.4,1.4,9.4,4.2,12.1c2.8,2.7,6.2,4.8,10.1,6.3l59,21.6v31.5L1063.6,2034.7L1063.6,2034.7z"
						/>
					<path class="st2" d="M1400,2034.7v-31.5l59-21.6c4.6-1.7,8.1-3.9,10.4-6.4c2.3-2.6,3.4-6.6,3.4-11.9v-384.1
						c0-5.1-1.4-9-4.1-11.6c-2.7-2.6-6-4.5-9.9-5.6l-59-21.6v-31.5h267.7v31.5l-59,21.6c-3.9,1.5-7.3,3.4-10.1,6.1
						c-2.8,2.6-4.2,6.3-4.2,11.2v384c0,5.4,1.4,9.4,4.2,12.1c2.8,2.7,6.2,4.8,10.1,6.3l59,21.6v31.5L1400,2034.7L1400,2034.7z"/>
					<path class="st2" d="M1736.3,2034.7v-31.5l59-21.6c4.6-1.7,8.1-3.9,10.4-6.4c2.3-2.6,3.4-6.6,3.4-11.9v-384.1
						c0-5.1-1.4-9-4.1-11.6c-2.7-2.6-6-4.5-9.9-5.6l-59-21.6v-31.5h267.7v31.5l-59,21.6c-3.9,1.5-7.3,3.4-10.1,6.1
						c-2.8,2.6-4.2,6.3-4.2,11.2v384c0,5.4,1.4,9.4,4.2,12.1c2.8,2.7,6.2,4.8,10.1,6.3l59,21.6v31.5L1736.3,2034.7L1736.3,2034.7z"
						/>
				</g>
				<g>
					<polygon class="st2" points="2024.5,1765.3 1084,1765.3 1084,1802 2024.5,1802 2072.7,1783.6 					"/>
					<path class="st2" d="M1047.5,1715.7v49.6H935.7v-18.3h-36.6v40.2v40.2h36.6h111.8h36.6v-25.6v-36.6v-49.6H1047.5z
						 M1047.5,1816.9H935.7V1802h111.8V1816.9z"/>
				</g>
			</g>
			<g>
				<path class="st2" d="M3171.5,1347.4c-70.9-117.3-171.1-210.8-300.7-280.4c-129.5-69.5-282.8-104.3-459.8-104.3H990.4
					c-18.1,0-31.5-4.7-40.6-14.2c-9-9.5-16.7-21.8-23-37.3l-79.9-207.2H730.4v1002.1h116.5l79.9-241.1c4.5-15.4,11.5-27.8,21-37.3
					s23.7-14.2,42.6-14.2h1400.4c144.5,0,264.3,3.7,359.6,10.9s155,17.1,179.5,29.8c18.9,9,32.1,21,39.3,35.9
					c7.2,14.9,10.9,34.6,10.9,58.9c0,31.7-7.9,73.9-23.7,126.6c-15.8,52.9-34.1,105.4-54.8,157.7c-20.8,52.3-37.9,94.8-51.5,127.3
					v81.4c-18.9,5.6-37.5,11.6-55.7,17.7c-439.7,139.1-307.8,709.5-736.5,803.9c242.7,26.5,468-161.1,502.4-393.5
					c31.2-111.3,20.7-241.6,137.5-315.2c149.7-92.5,339.9-87,520.2-84.9l14,0.5c6.3-28.9,13.1-64.1,20.3-105.6
					c7.2-41.6,13.3-82.6,18.3-123.3c4.9-40.6,7.4-74.1,7.4-100.2C3277.8,1596.1,3242.4,1464.8,3171.5,1347.4z"/>
				<path class="st2" d="M499.3,1388.5c-17.7-107.4-42.8-216.5-35.3-330c-120.7,243.8-111.8,355.8,23.5,592.8
					C490.2,1563,508.8,1478.6,499.3,1388.5z"/>
				<path class="st2" d="M626,1989.3C562.7,1786.2,703.9,1519,531,1351c67.6,159.7-59.9,345.8,25.5,503.6l-3.8,0.4
					c-24.4-38.8-38.7-81.5-61.2-120.6c-57.6-109.3-163.3-204.3-137.7-341.8c-31.2,52.8-43.1,115.4-35.9,181.5
					C321.8,1758.3,517.1,1860.2,626,1989.3z"/>
				<path class="st2" d="M645.9,1664.9c11.5,26.3,15.1,55.6,16.8,86.2c-11.5,151.4-14.9,304.6,85.6,419.5c-1.7,4.2-4.9,0.8-7,1.3
					l-102.5-119c-105.3-110.9-276.8-179-309.3-336.6c3.6,129.2,54,255.4,151.4,350.7c112,127.2,273.1,134.8,394.5,238.9
					C742,2116.2,805.1,1844.7,645.9,1664.9z"/>
				<path class="st2" d="M1236.1,2541.7c-51.5-38.4-103.2-83.5-133.4-139c-86.2-154.9-171.2-330.4-306-448.5
					c99.8,175.9,71.2,412.3,292,513.6c0.3,2.2,0.5,5.2-1.9,6c-56.1-22.1-103.7-63.9-157.2-93.7c-139.7-83.1-318.7-89.2-422.1-242.7
					c14.6,41.2,40.7,77.9,64.1,115.3c63.7,93.3,161.7,162.4,255.5,212.8C947.6,2527,1104.6,2511.7,1236.1,2541.7z"/>
				<path class="st2" d="M1677.6,2637.5c-244.3-66-396.6-320.3-628.2-402.5c174.6,153.7,161,319.7,433.5,385.7
					c-40.7,2.2-80.2-9.4-119.4-16.4c-180.6-44.8-399.1,29.7-545.1-96.6C1022.5,2792.7,1393.4,2708.8,1677.6,2637.5z"/>
				<path class="st2" d="M2089.9,2592.4c-271.7,15.8-429-202.1-732.5-199.2c205.7,84.3,322.4,278.2,575.5,237.3v2.5
					c-34.9,12.7-73,18.9-112.8,21.3c-208.8,20.6-392.8,179-615.7,92.7c132,95,323.7,109.8,483.7,71.7
					C1842.2,2791.3,1953.3,2661.4,2089.9,2592.4z"/>
				<path class="st2" d="M2442,2345.3c-191.9,154.4-456.9,79-675.4,128.4c203,40.7,313,146.8,521.2,13.6
					c-18.5,25.2-45.7,35.8-69.1,53.6c-178.5,113.3-316,334-550.2,318.9C2108.9,2964.7,2246.6,2647.4,2442,2345.3z"/>
			</g>
		</g>
	</g>
</g>
<g id="BG">
	<rect width="3600" height="3600"/>
</g>
<g id="Layer_1">
	<g>
		<g>
			<g>
				<g>
					<path class="st2" d="M2064.1,2032.1l244-503.5h66.7l244,503.5H2064.1z M2157.1,1978.7h368.3l-184-385.2L2157.1,1978.7z"/>
				</g>
				<path class="st2" d="M1098.2,2032.1v-30.2l56.5-20.7c4.4-1.6,7.8-3.7,10-6.1c2.2-2.5,3.3-6.3,3.3-11.4V1596
					c0-4.9-1.3-8.6-3.9-11.1c-2.6-2.5-5.7-4.3-9.5-5.4l-56.5-20.7v-30.2h256.3v30.2l-56.5,20.7c-3.7,1.4-7,3.3-9.7,5.8
					c-2.7,2.5-4,6-4,10.7v367.6c0,5.2,1.3,9,4,11.6c2.7,2.6,5.9,4.6,9.7,6l56.5,20.7v30.2H1098.2z"/>
				<path class="st2" d="M1420.2,2032.1v-30.2l56.5-20.7c4.4-1.6,7.8-3.7,10-6.1c2.2-2.5,3.3-6.3,3.3-11.4V1596
					c0-4.9-1.3-8.6-3.9-11.1c-2.6-2.5-5.7-4.3-9.5-5.4l-56.5-20.7v-30.2h256.3v30.2l-56.5,20.7c-3.7,1.4-7,3.3-9.7,5.8
					c-2.7,2.5-4,6-4,10.7v367.6c0,5.2,1.3,9,4,11.6c2.7,2.6,5.9,4.6,9.7,6l56.5,20.7v30.2H1420.2z"/>
				<path class="st2" d="M1742.1,2032.1v-30.2l56.5-20.7c4.4-1.6,7.8-3.7,10-6.1c2.2-2.5,3.3-6.3,3.3-11.4V1596
					c0-4.9-1.3-8.6-3.9-11.1c-2.6-2.5-5.7-4.3-9.5-5.4l-56.5-20.7v-30.2h256.3v30.2l-56.5,20.7c-3.7,1.4-7,3.3-9.7,5.8
					c-2.7,2.5-4,6-4,10.7v367.6c0,5.2,1.3,9,4,11.6c2.7,2.6,5.9,4.6,9.7,6l56.5,20.7v30.2H1742.1z"/>
			</g>
			<g>
				<polygon class="st2" points="2018,1774.3 1117.7,1774.3 1117.7,1809.4 2018,1809.4 2064.1,1791.8 				"/>
				<path class="st2" d="M1082.7,1726.8v47.5h-107v-17.5h-35v38.5v38.5h35h107h35v-24.5v-35v-47.5H1082.7z M1082.7,1823.7h-107
					v-14.3h107V1823.7z"/>
			</g>
		</g>
		<g>
			<path class="st2" d="M3115.9,1374.2c-67.9-112.3-163.8-201.8-287.8-268.4c-124-66.5-270.7-99.8-440.1-99.8H1028.1
				c-17.3,0-30.2-4.5-38.9-13.6c-8.6-9.1-16-20.9-22-35.7l-76.5-198.3H779.2v959.3h111.5l76.5-230.8c4.3-14.7,11-26.6,20.1-35.7
				c9.1-9.1,22.7-13.6,40.8-13.6h1340.5c138.3,0,253,3.5,344.2,10.4c91.2,6.9,148.4,16.4,171.8,28.5c18.1,8.6,30.7,20.1,37.6,34.4
				c6.9,14.3,10.4,33.1,10.4,56.4c0,30.3-7.6,70.7-22.7,121.2c-15.1,50.6-32.6,100.9-52.5,151c-19.9,50.1-36.3,90.7-49.3,121.9v77.9
				c-18.1,5.4-35.9,11.1-53.3,16.9c-420.9,133.2-294.6,679.2-705,769.5c232.3,25.4,448-154.2,480.9-376.7
				c29.9-106.5,19.8-231.3,131.6-301.7c143.3-88.5,325.4-83.3,498-81.3l13.4,0.5c6-27.7,12.5-61.4,19.4-101.1
				c6.9-39.8,12.7-79.1,17.5-118c4.7-38.9,7.1-70.9,7.1-95.9C3217.7,1612.3,3183.8,1486.6,3115.9,1374.2z"/>
			<path class="st2" d="M558,1413.6c-16.9-102.8-41-207.2-33.8-315.9c-115.5,233.4-107,340.6,22.5,567.5
				C549.3,1580.6,567.1,1499.8,558,1413.6z"/>
			<path class="st2" d="M679.3,1988.7c-60.6-194.4,74.5-450.2-91-611c64.7,152.9-57.3,331,24.4,482.1l-3.6,0.4
				c-23.4-37.1-37-78-58.6-115.4c-55.1-104.6-156.3-195.6-131.8-327.2c-29.9,50.5-41.3,110.5-34.4,173.7
				C388.1,1767.6,575,1865.1,679.3,1988.7z"/>
			<path class="st2" d="M698.3,1678.2c11,25.2,14.5,53.2,16.1,82.5c-11,144.9-14.3,291.6,81.9,401.6c-1.6,4-4.7,0.8-6.7,1.2
				l-98.1-113.9c-100.8-106.2-265-171.3-296.1-322.2c3.4,123.7,51.7,244.5,144.9,335.7c107.2,121.8,261.4,129,377.6,228.7
				C790.3,2110.2,850.7,1850.3,698.3,1678.2z"/>
			<path class="st2" d="M1263.3,2517.5c-49.3-36.8-98.8-79.9-127.7-133.1c-82.5-148.3-163.9-316.3-292.9-429.3
				c95.5,168.4,68.2,394.7,279.5,491.6c0.3,2.1,0.5,5-1.8,5.7c-53.7-21.2-99.3-61.2-150.5-89.7c-133.7-79.5-305.1-85.4-404.1-232.3
				c14,39.4,39,74.6,61.4,110.4c61,89.3,154.8,155.5,244.6,203.7C987.1,2503.4,1137.4,2488.7,1263.3,2517.5z"/>
			<path class="st2" d="M1685.9,2609.2c-233.9-63.2-379.6-306.6-601.3-385.3c167.1,147.1,154.1,306,415,369.2
				c-39,2.1-76.8-9-114.3-15.7c-172.9-42.9-382,28.4-521.8-92.5C1058.8,2757.7,1413.9,2677.4,1685.9,2609.2z"/>
			<path class="st2" d="M2080.6,2566c-260.1,15.1-410.7-193.5-701.2-190.7c196.9,80.7,308.6,266.3,550.9,227.2l0,2.4
				c-33.4,12.2-69.9,18.1-108,20.4c-199.9,19.7-376,171.3-589.4,88.7c126.4,90.9,309.9,105.1,463,68.6
				C1843.5,2756.4,1949.8,2632,2080.6,2566z"/>
			<path class="st2" d="M2417.6,2329.5c-183.7,147.8-437.4,75.6-646.5,122.9c194.3,39,299.6,140.5,498.9,13
				c-17.7,24.1-43.7,34.3-66.1,51.3c-170.9,108.5-302.5,319.7-526.7,305.3C2098.8,2922.4,2230.6,2618.6,2417.6,2329.5z"/>
		</g>
	</g>
</g>
</svg>
