<?xml version="1.0" encoding="utf-8"?>
<!-- Generator: Adobe Illustrator 26.3.1, SVG Export Plug-In . SVG Version: 6.00 Build 0)  -->
<svg version="1.1" xmlns="http://www.w3.org/2000/svg" xmlns:xlink="http://www.w3.org/1999/xlink" x="0px" y="0px"
	 viewBox="0 0 3600 3600" style="enable-background:new 0 0 3600 3600;" xml:space="preserve">
<style type="text/css">
	.st0{display:none;}
	.st1{display:inline;}
	.st2{fill:#FFFFFF;}
</style>
<g id="PNG_BG" class="st0">
	<g class="st1">
		<path d="M3371.8,1504L3371.8,1504c-21.5-79.5-54.1-155.8-96.9-226.8l-0.2-0.3c-42.7-70.6-95-134.9-155.3-191.2
			c-59.5-55.5-128.2-104.3-204.2-145.1c-76.6-41.1-160.8-72.2-250.2-92.5c-86.6-19.6-180.2-29.6-278.4-29.6H1118.2l-95.2-247H577.1
			l-219.6,443.9c-61,123.2-90.8,215.8-98.5,306.6c-49.1,82.8-70,180.4-60.5,282.3c1,25.6,4.1,50,9.4,74.4l1.5,54
			c4.4,161.8,65.2,315.5,171.5,434l9.4,26.4c18.8,52.6,46.1,95.3,68,129.6l0.1,0.1c3.9,6.1,7.5,11.8,11,17.3l3,4.6l1.2,1.8
			c49.5,72.4,117.7,138.9,202.9,197.7l35.2,49.2c65.3,91.3,148.5,160.6,247.3,205.8c41.5,19,86.7,34,134.2,44.6l30.5,21.9
			c84.8,61,191.1,101.1,307.5,116c34.7,4.4,70.5,6.7,106.4,6.7c9.5,0,19.2-0.2,28.9-0.5l67.1,16c70,16.7,134.6,24.8,197.3,24.8
			c42.6,0,84.6-3.9,124.8-11.6c13.3-2.6,26.7-5.6,39.8-9l33,3.6c21.5,2.4,43.3,3.5,64.8,3.5c60.8,0,121.5-9.4,180.6-27.9
			c75.2-23.6,145.1-60.9,207.9-111.1c61.7-49.3,113.4-108.4,153.5-175.7c39.8-66.8,66.4-138.6,79-213.4c8-30.8,13.2-59.4,18.2-87.2
			c12.9-71.7,19.1-86.9,28-92.8c91.6-55.9,236.9-54.1,377.4-52.4l13.9,0.2l169.5,6.6l33.9-155.2c6.5-30,13.6-66.6,21-108.8
			c7.4-42.6,13.7-85.4,18.9-127.2c5.7-47,8.5-85.8,8.5-118.6C3403.7,1665.8,3393,1582.5,3371.8,1504z"/>
	</g>
</g>
<g id="BG">
	<rect width="3600" height="3600"/>
</g>
<g id="Cypher">
	<g>
		<g>
			<g>
				<g>
					<path class="st2" d="M2064.1,2032.1l244-503.5h66.7l244,503.5H2064.1z M2157.1,1978.7h368.3l-184-385.2L2157.1,1978.7z"/>
				</g>
				<path class="st2" d="M1098.2,2032.1v-30.2l56.5-20.7c4.4-1.6,7.8-3.7,10-6.1c2.2-2.5,3.3-6.3,3.3-11.4V1596
					c0-4.9-1.3-8.6-3.9-11.1c-2.6-2.5-5.7-4.3-9.5-5.4l-56.5-20.7v-30.2h256.3v30.2l-56.5,20.7c-3.7,1.4-7,3.3-9.7,5.8
					c-2.7,2.5-4,6-4,10.7v367.6c0,5.2,1.3,9,4,11.6c2.7,2.6,5.9,4.6,9.7,6l56.5,20.7v30.2H1098.2z"/>
				<path class="st2" d="M1420.2,2032.1v-30.2l56.5-20.7c4.4-1.6,7.8-3.7,10-6.1c2.2-2.5,3.3-6.3,3.3-11.4V1596
					c0-4.9-1.3-8.6-3.9-11.1c-2.6-2.5-5.7-4.3-9.5-5.4l-56.5-20.7v-30.2h256.3v30.2l-56.5,20.7c-3.7,1.4-7,3.3-9.7,5.8
					c-2.7,2.5-4,6-4,10.7v367.6c0,5.2,1.3,9,4,11.6c2.7,2.6,5.9,4.6,9.7,6l56.5,20.7v30.2H1420.2z"/>
				<path class="st2" d="M1742.1,2032.1v-30.2l56.5-20.7c4.4-1.6,7.8-3.7,10-6.1c2.2-2.5,3.3-6.3,3.3-11.4V1596
					c0-4.9-1.3-8.6-3.9-11.1c-2.6-2.5-5.7-4.3-9.5-5.4l-56.5-20.7v-30.2h256.3v30.2l-56.5,20.7c-3.7,1.4-7,3.3-9.7,5.8
					c-2.7,2.5-4,6-4,10.7v367.6c0,5.2,1.3,9,4,11.6c2.7,2.6,5.9,4.6,9.7,6l56.5,20.7v30.2H1742.1z"/>
			</g>
			<g>
				<polygon class="st2" points="2018,1774.3 1117.7,1774.3 1117.7,1809.4 2018,1809.4 2064.1,1791.8 				"/>
				<path class="st2" d="M1117.7,1833.8v-24.5v-35v-47.5h-35v47.5h-107v-17.5h-35v38.5v38.5h35v-24.5h107v24.5H1117.7z"/>
			</g>
		</g>
		<g>
			<path class="st2" d="M3115.9,1374.2c-67.9-112.3-163.8-201.8-287.8-268.4c-124-66.5-270.7-99.8-440.1-99.8H1028.1
				c-17.3,0-30.2-4.5-38.9-13.6c-8.6-9.1-16-20.9-22-35.7l-76.5-198.3H779.2v959.3h111.5l76.5-230.8c4.3-14.7,11-26.6,20.1-35.7
				c9.1-9.1,22.7-13.6,40.8-13.6h1340.5c138.3,0,253,3.5,344.2,10.4c91.2,6.9,148.4,16.4,171.8,28.5c18.1,8.6,30.7,20.1,37.6,34.4
				c6.9,14.3,10.4,33.1,10.4,56.4c0,30.3-7.6,70.7-22.7,121.2c-15.1,50.6-32.6,100.9-52.5,151c-19.9,50.1-36.3,90.7-49.3,121.9v77.9
				c-18.1,5.4-35.9,11.1-53.3,16.9c-420.9,133.2-294.6,679.2-705,769.5c232.3,25.4,448-154.2,480.9-376.7
				c29.9-106.5,19.8-231.3,131.6-301.7c143.3-88.5,325.4-83.3,498-81.3l13.4,0.5c6-27.7,12.5-61.4,19.4-101.1
				c6.9-39.8,12.7-79.1,17.5-118c4.7-38.9,7.1-70.9,7.1-95.9C3217.7,1612.3,3183.8,1486.6,3115.9,1374.2z"/>
			<path class="st2" d="M558,1413.6c-16.9-102.8-41-207.2-33.8-315.9c-115.5,233.4-107,340.6,22.5,567.5
				C549.3,1580.6,567.1,1499.8,558,1413.6z"/>
			<path class="st2" d="M679.3,1988.7c-60.6-194.4,74.5-450.2-91-611c64.7,152.9-57.3,331,24.4,482.1l-3.6,0.4
				c-23.4-37.1-37-78-58.6-115.4c-55.1-104.6-156.3-195.6-131.8-327.2c-29.9,50.5-41.3,110.5-34.4,173.7
				C388.1,1767.6,575,1865.1,679.3,1988.7z"/>
			<path class="st2" d="M698.3,1678.2c11,25.2,14.5,53.2,16.1,82.5c-11,144.9-14.3,291.6,81.9,401.6c-1.6,4-4.7,0.8-6.7,1.2
				l-98.1-113.9c-100.8-106.2-265-171.3-296.1-322.2c3.4,123.7,51.7,244.5,144.9,335.7c107.2,121.8,261.4,129,377.6,228.7
				C790.3,2110.2,850.7,1850.3,698.3,1678.2z"/>
			<path class="st2" d="M1263.3,2517.5c-49.3-36.8-98.8-79.9-127.7-133.1c-82.5-148.3-163.9-316.3-292.9-429.3
				c95.5,168.4,68.2,394.7,279.5,491.6c0.3,2.1,0.5,5-1.8,5.7c-53.7-21.2-99.3-61.2-150.5-89.7c-133.7-79.5-305.1-85.4-404.1-232.3
				c14,39.4,39,74.6,61.4,110.4c61,89.3,154.8,155.5,244.6,203.7C987.1,2503.4,1137.4,2488.7,1263.3,2517.5z"/>
			<path class="st2" d="M1685.9,2609.2c-233.9-63.2-379.6-306.6-601.3-385.3c167.1,147.1,154.1,306,415,369.2
				c-39,2.1-76.8-9-114.3-15.7c-172.9-42.9-382,28.4-521.8-92.5C1058.8,2757.7,1413.9,2677.4,1685.9,2609.2z"/>
			<path class="st2" d="M2080.6,2566c-260.1,15.1-410.7-193.5-701.2-190.7c196.9,80.7,308.6,266.3,550.9,227.2l0,2.4
				c-33.4,12.2-69.9,18.1-108,20.4c-199.9,19.7-376,171.3-589.4,88.7c126.4,90.9,309.9,105.1,463,68.6
				C1843.5,2756.4,1949.8,2632,2080.6,2566z"/>
			<path class="st2" d="M2417.6,2329.5c-183.7,147.8-437.4,75.6-646.5,122.9c194.3,39,299.6,140.5,498.9,13
				c-17.7,24.1-43.7,34.3-66.1,51.3c-170.9,108.5-302.5,319.7-526.7,305.3C2098.8,2922.4,2230.6,2618.6,2417.6,2329.5z"/>
		</g>
	</g>
</g>
</svg>
