<?xml version="1.0" encoding="utf-8"?>
<!-- Generator: Adobe Illustrator 26.3.1, SVG Export Plug-In . SVG Version: 6.00 Build 0)  -->
<svg version="1.1" id="Layer_1" xmlns="http://www.w3.org/2000/svg" xmlns:xlink="http://www.w3.org/1999/xlink" x="0px" y="0px"
	 viewBox="0 0 3600 3600" style="enable-background:new 0 0 3600 3600;" xml:space="preserve">
<style type="text/css">
	.st0{fill:#FFFFFF;}
	.st1{fill:#231F20;}
	.st2{fill:#FFFFFF;stroke:#231F20;stroke-width:10;stroke-miterlimit:10;}
</style>
<g>
	<g>
		<path class="st0" d="M1800,79C1800,79,1800,79,1800,79C1068.5,75.7,481.4,237.9,331.3,281.5L438.8,1800H1800V79z"/>
		<path id="path2386_00000097477638072910811340000007495357459719272579_" class="st1" d="M1498.4,483.7
			c-30,43.8-59.1,35.9-84.3,0.5c-46-3.6-77.1,25.1-101,69c-25.5,40.7,85.8,224.2-40.4,225.8c-157.5-68.5,56.5-166.7-77.2-298.8
			c-65.1,3.9-103.7-19.3-105.9,101c16.1,124.4-40.2,195.2-98.5,190.4c-123.3-55.5,114-203.6-100.8-285.4
			c-90.2,6.2-287.6-31.7-274.1,69.7c11.3,85.2,175.3,15.7,188.7,60.6c4.2,37.9-147.7,8.3-147.9,43.9c-0.1,17.3,9.6,62.2,31.4,73.4
			c21.8,11.2,76,4.6,103.3,9.9c3.9,49.6-103.8,17.9-100.7,35.1c8.4,47.4,42.9,72.9,45,74.6c38,30.2,123.3-15.6,121.8-7
			c-14.7,82.4-140.3,63-111.6,84.5c10,42,32.7,48.5,53.9,59.4c34.6,2,67.4-8.9,99.3-26.4c22,16.2,0.3,53.9-83.3,67.2
			c-7.3,39.9-20.3,57.6,26.5,65.7c93.8,33.7,136.6-56.1,177.1-93.1c19.3,44.5-36.1,65.1-60.1,95.7l-2.8,41.6
			c-29,21.5-36.1,13.1-66.7-11.6c-47.2,0.4-86.8,18.8-23.9,44.5c-22.7,22.1-27.3,52.6-9.3,93.7c16.4-19.9,36.5-44.5,40.4-48.4
			c40.3,8.1,59.3,28.5,78.7,45.2c9.5-22-14.7-48.7-28.4-78.5c11.4-13.5,26.4-29.3,46.2-38.6c71.4,3.7,70.9-28.1,87.7-63.1
			c34.7,82.9-39.3,118.1-31.8,186.7l46.5-12.6c11.4,25.8,0,38.5-22.3,44.8c-69.6,1.9-144.4,5.5-142.9,92.4l12.4,62.3
			c25.9-5.8,144.3,28.5,51.7-57.6c-13.6-66.1,21.8-44.8,48.4-39.1c-47.5,58.7,16.5,61.4,29.1,9.1c28,10.5,56.5,24.8-28.4,53.3
			c64.2,84.1,49.4,174.2,96.1,200c27.8-11.3,0.1-79.3,70.7-197.4c-9-19-104.5-8.5-43.8-47.8c12.5,20.9,29.9,20.4,47.3,20
			c45.3-95.6,84.6-1.9,70.8,61.4c61.9-22.5,124.4-108.2,12.1-157.6c-45.8-4.8-109.9,12-132.3-14.5c-7.6-19.4,8.5-27.8,43.7-27.4
			c-12-79.5-45.1-102.4-40.4-162.8c10.6,8.5,28.3,13.5,28,48.2c13.2-13.4,25.9-12,38.7-14.9c25.5,19.1,47.3,38.3,60.3,57.8
			c-15.4,15.6-31.3,38.8-13.8,62.1c58.9-48.8,85.1-14.9,114.4,11.3c-1.1-59.8,9.4-128.5-91.1-111.8c-23.8-21.9-54.6-42.9-53.7-67.7
			c59.8,7.2,89.7,54.4,134.4,83.3c21.8-18.9,43.7-37.4,62.4-68.8c-30.7-30.1-90.9-66-116.7-117.9c67.3,21.3,136.3,127.5,217.1-18.5
			c-10.6-30.5-98.5-13.4-113.3-53.7c135.4,27.9,157.2-14.8,159-84.2c-35-5-87.2,1.1-103.1-24.7c91.2-10.3,162.4-60.1,154-164.6
			c-68.9,36.1-128.8,36.8-169.9,19.2c193.1-51.1,207.6-52,159.8-168.6L1498.4,483.7z M1078.2,487.6c-57.5-2.2-73.3,21-83.3,48.3
			c19.7,30,53.3,56.5,97.5,55.9C1082,562.9,1057.2,531.9,1078.2,487.6z M1163.8,548.8c10.1,0,14.4,5.7,14.4,15.7
			c0,10-2.4,14.8-12.5,14.8c-10.1,0-16.4-2.4-16.4-12.4C1149.3,556.9,1153.7,548.8,1163.8,548.8z"/>
	</g>
	<g>
		<path class="st0" d="M1800,1800v1721c369.7-4.4,890.3-224.6,1109.5-578.5c191.5-309.2,200.8-639.2,233.3-882.1l18.4-260.5H1800z"
			/>
		<g>
			<path class="st1" d="M2572.4,2093.4c16.7,2.7,31.3-3.7,43.8-15.8c22-21.4,44.6-42.4,66.1-64.3c33.3-34.1,74.5-45.5,120.5-44.6
				c3.4,0.1,7,0.5,10.2,1.5c9.9,2.9,11.5,8.8,3.8,15.8c-10.3,9.4-22.9,15.5-35.1,22c-34.5,18.4-64.8,41.7-86.8,74.5
				c-10.7,16-9.5,18.6,9.1,22.4c24.6,5,49.4,9,73.2,17.3c21.6,7.5,37.1,21.8,46.1,42.9c2.1,4.8,3.7,10.3-0.2,14.8
				c-4,4.6-9.7,3.1-14.6,1.6c-30.6-9.2-62.5-8.2-93.9-11.3c-16.8-1.7-33.7-1.6-50.5-2.8c-40-2.7-79.5,2.4-118.9,8.6
				c-19.8,3.1-38.9-0.3-58-3.7c-19.5-3.5-38.7-2.7-58,1c-43.8,8.4-87.6,10.8-131.3-0.6c-14.4-3.8-28.4-2.3-42.3,1.6
				c-30.7,8.6-61.4,14.4-93.5,9.1c-9.3-1.5-19.1-0.8-28.5,0.2c-13.4,1.5-23.5,5.6-27.3,22.2c-6.9,29.8-46.7,41.9-71.8,23.6
				c-6.3-4.6-10.2-11-10.8-18.5c-0.9-11.1-6.8-17.3-16.9-20.4c-2.5-0.8-4.9-1.7-7.3-2.8c-21.9-9.6-27.4-30-10.7-46.8
				c12.7-12.8,21.2-25.9,23.9-44.3c2.6-18,21.9-31.3,39.8-31.4c15.8-0.2,28.2,10.1,34.6,28.4c6.3,18.2,8.2,18.8,22.5,5.9
				c14.1-12.8,19.9-30.2,25.5-47.5c11.9-36.4,27.2-71,48.3-103.2c18.9-28.8,47.4-42.2,78.6-51.5c10.7-3.2,17,3.7,14,14.4
				c-2.9,10.2-9.7,18.2-16.2,26.4c-29,36.5-48.9,77.5-59.3,122.9c-2.4,10.7-6.3,23.2,4.8,31.3c11.8,8.6,25.2,10.6,39.3,4.3
				c12.7-5.7,22.1-15,30.7-25.5c18-22.1,28.3-48.5,41.9-73.1c19.6-35.7,43-68.3,78.7-89.8c23.5-14.1,49.1-21.5,76.7-20.5
				c5.2,0.2,11.1-0.1,13.5,5.6c2.7,6.4-2.4,10.5-6.5,14.3c-3.2,2.9-6.8,5.5-10.5,7.7c-48.5,29-79,72.8-101.3,123.4
				c-0.3,0.8-0.7,1.6-1,2.4c-7.9,21.1-6.2,38.9,4.4,47.3c11.5,9,42.7,7.7,56.8-2.8c14.1-10.5,24.6-24.4,34.1-38.9
				c22.8-34.8,46.3-69.1,78.2-96.6c25-21.6,52.4-38.1,86-42.7c15.3-2.1,30.3-1.1,45,3.2c9.7,2.9,10.5,8.3,2.4,14.4
				c-5.2,3.9-11,6.9-16.6,10.1c-52.1,29.7-89.2,73.6-116,126.2c-12.6,24.7-7.8,30.9,20.1,32.4
				C2564.4,2093.6,2567.9,2093.4,2572.4,2093.4z"/>
			<path class="st1" d="M2392.1,2489c15,0.5,26.4-6.9,36.9-16.5c26.4-23.9,43.2-55.1,63.9-83.3c19.5-26.7,39.4-53.1,70.3-67.8
				c21.4-10.2,44.2-15,67.9-15c6.1,0,12.8-0.1,15.9,6.4c3.3,7.1-1.3,12.5-5.6,17.4c-14.6,16.3-33.7,27.1-49.9,41.5
				c-26.5,23.6-49.1,50.2-63.3,83c-4.4,10.2-12.5,22.2-2.7,32.8c10.2,11.1,23.6,6,35.4,1.8c23.8-8.4,42.3-25,60.9-41.3
				c7.5-6.6,15.1-13.1,21.9-20.3c33.4-34.8,75.1-50,122.2-52.6c2.2-0.1,4.4-0.5,6.5-0.1c6.2,1.2,14.1,0.1,16.6,7.7
				c2.5,7.6-3.8,11.7-8.7,16c-12.9,11.1-27.9,19-43,26.6c-25,12.7-47.4,28.8-65.7,50.1c-11.6,13.5-9.8,18.6,7.4,21.8
				c19.6,3.6,39.3,6.1,58.9,9.8c15.4,2.9,30.2,7.9,42.2,18.8c6.5,5.9,12.2,12.4,14.4,21.2c2.5,10.3-2.4,16.5-13,15
				c-71.6-9.8-142.4,1.8-213.4,7.3c-26.9,2.1-53.7,2.4-79.7-6.2c-17.8-5.9-35.4-5.5-53.5-0.2c-37.2,10.9-75.2,12.9-113.1,5.6
				c-26.3-5.1-51.8-4-76.9,4c-36.3,11.4-72.8,14.8-110.2,6.5c-6.2-1.4-12.9-0.8-19.4-0.9c-6.9-0.1-10.9,2.9-12.8,10.2
				c-5.8,21.8-22,33.8-42.1,40.4c-13.9,4.6-31.7-5.5-40-22.4c-4.6-9.3-11.1-14.7-20.2-18.7c-24.6-10.8-28.2-32.9-8.4-51.5
				c8.7-8.2,13.6-16.8,14-29.2c0.6-17.4,16-34.2,32.8-37.8c13.4-2.9,22.1,5.7,30.2,14.2c13.4,14.2,18.3,14.6,31.7-0.4
				c15.9-17.8,25.1-39.5,31.7-62c16.6-56.7,55.2-92.6,107.5-116c3.1-1.4,6.6-2.3,9.9-3c5.2-1,10.7-1.5,14.4,3.2
				c4.1,5.1,2.9,10.9-0.5,15.8c-10.3,15-20.8,29.8-31.6,44.5c-15.5,21.1-27.9,43.8-36.5,68.5c-3.7,10.8-5.3,21.8-5,33.2
				c0.6,26.9,20.9,39.8,45.5,28.6c16.3-7.4,27.9-20.3,38.3-34.3c10.1-13.7,17.4-28.8,22.9-45c10.2-30,26.4-56.6,48.5-79.1
				c23-23.4,53.2-33.3,84-41.1c7.7-1.9,16.2-1.1,20.6,7.2c4.5,8.6-2.3,13.8-7.5,18.8c-22,20.8-45.2,40.5-60.8,67.1
				c-12.4,21.2-22.2,43.2-24.4,67.9c-2.1,22.6,3,28.3,25.7,31.3C2386,2488.8,2389.1,2488.8,2392.1,2489z"/>
			<path class="st1" d="M2226.2,2977.7c-31.2,1.9-67.2-1.6-103,2.8c-10.1,1.2-17,5.5-20.6,15.1c-4.8,12.8-14.2,19.3-28,19
				c-14.8-0.4-31.3,3.1-38.3-16.2c-1.9-5.2-5.7-7.2-11.4-5.7c-11.5,3-21.4-1.5-30.6-7.4c-17.3-11.1-19.9-25.7-7.1-41.6
				c5.9-7.4,9.4-15.1,10.3-24.6c3-30.5,21.8-43.2,51.4-34.5c8.8,2.6,10.6-1,11.4-8.4c2.1-21.5,2.2-43.2,9.9-63.9
				c10.5-28.3,23.8-54.8,45.6-76.2c10.8-10.6,23.2-18,38.3-20.4c13.7-2.1,17.7,1.7,12.5,14.4c-8.3,20.4-17.6,40.5-26.9,60.5
				c-12,25.8-16.5,52.7-14,80.9c1.5,16.2,8.1,24.3,23.9,28c39.8,9.3,61.2-3.4,71.2-43.2c6.4-25.6,11.3-51.5,22.8-75.6
				c20.8-43.5,60.1-58.8,102.7-69.1c11.2-2.7,16.7,6.3,11.2,17.1c-5.2,10.1-13.2,18.2-20.6,26.6c-17.8,20.4-32.5,42.7-42.8,67.8
				c-5.5,13.4-7.5,27.3-7.9,41.8c-1,33.2,24.5,36.4,44.7,29.1c12.4-4.5,22.6-12.9,30.6-23.4c17.5-23.1,34.6-46.5,52-69.8
				c5.7-7.7,12.5-14.3,21-19.2c27.1-15.6,55.7-28,85.4-37.9c5-1.7,11.2-5.3,15.8,0.1c4.7,5.5,1.2,11.7-1.3,17.1
				c-8.1,17.7-21.4,31.4-34.9,44.9c-19.1,19-37.2,38.7-52.9,60.6c-4.3,6-8.3,12.2-11.6,18.7c-6,11.9-4.2,14.7,8.7,17.3
				c19.2,3.8,38.8,1.2,58.2,4.2c32,5,54,24,73.2,47.6c7.5,9.2,5.5,13.5-6.8,14.3c-31.5,2-63.1,3.6-94.6,4.5
				C2392.8,2975.3,2311.9,2978.8,2226.2,2977.7z"/>
		</g>
	</g>
	<g>
		<path class="st1" d="M1800,79v1721h1361.2l107.5-1518.5C3118.6,237.9,2531.5,75.7,1800,79z"/>
		<g>
			<g>
				<polygon class="st2" points="2480.6,818.4 2783.7,664.1 2629.5,967.2 2783.7,1270.3 2480.6,1116 2177.5,1270.3 2331.8,967.2 
					2177.5,664.1 				"/>
				<g>
					<polygon class="st1" points="2480.6,818.4 2783.7,664.1 2629.5,967.2 2783.7,1270.3 2480.6,1116 2177.5,1270.3 2331.8,967.2 
						2177.5,664.1 					"/>
					<g>
						<polygon class="st0" points="2177.5,664.1 2331.8,967.2 2480.6,967.2 						"/>
						<polygon class="st0" points="2480.6,1116 2480.6,967.2 2177.5,1270.3 						"/>
						<polygon class="st0" points="2783.7,1270.3 2629.5,967.2 2480.6,967.2 						"/>
						<polygon class="st0" points="2480.6,818.4 2480.6,967.2 2783.7,664.1 						"/>
					</g>
				</g>
			</g>
			<g>
				<polygon class="st2" points="2353.6,840.2 2480.6,449.8 2607.7,840.2 2998,967.2 2607.7,1094.2 2480.6,1484.6 2353.6,1094.2 
					1963.2,967.2 				"/>
				<g>
					<polygon class="st1" points="2353.6,840.2 2480.6,449.8 2607.7,840.2 2998,967.2 2607.7,1094.2 2480.6,1484.6 2353.6,1094.2 
						1963.2,967.2 					"/>
					<g>
						<polygon class="st0" points="2480.6,449.8 2353.6,840.2 2480.6,967.2 						"/>
						<polygon class="st0" points="2353.6,1094.2 2480.6,967.2 1963.2,967.2 						"/>
						<polygon class="st0" points="2480.6,1484.6 2607.7,1094.2 2480.6,967.2 						"/>
						<polygon class="st0" points="2607.7,840.2 2480.6,967.2 2998,967.2 						"/>
					</g>
				</g>
			</g>
		</g>
	</g>
	<g>
		<path class="st1" d="M1800,1800H438.8l18.4,260.5c32.6,242.9,41.9,572.8,233.3,882.1c219.1,353.8,739.8,574.1,1109.5,578.5
			c0,0,0,0,0,0V1800z"/>
		<g>
			<g>
				<path id="path8938_00000049179818745608054020000011132147807738610622_" class="st0" d="M1515.2,2629.6l-16.8,63.1h-63.1
					l50.5,39.2l-18.3,57.5l47.7-32.2l50.5,32.2l-18.2-57.5l51.8-39.2h-63L1515.2,2629.6z"/>
				<path id="path8932_00000176038221478357015990000017925290746462766780_" class="st0" d="M913.7,2629.6l-16.8,63.1h-64.5
					l51.9,39.2l-18.2,57.5l47.7-32.2l50.4,32.2l-19.6-57.5l53.3-39.2h-64.5L913.7,2629.6z"/>
				<path id="path8930_00000093863535249248834360000013692380343279189633_" class="st0" d="M1212.3,2797.8l-18.3,63.1H1131
					l50.5,37.9l-18.2,58.9l49.1-33.6l49.1,33.6l-18.2-58.9l51.8-37.9h-63.1L1212.3,2797.8z"/>
			</g>
			<path id="path8926_00000158713782742658608760000005463787979985843848_" class="st0" d="M1215.2,1906.6l-18.3,63.1h-63.1
				l50.5,37.9l-18.2,58.9l49.1-33.6l49.1,33.6l-18.2-58.9l51.8-37.9h-63.1L1215.2,1906.6z"/>
			<g>
				<g>
					<g>
						<g>
							<path class="st0" d="M1292.2,2455.9l70.6-145.7h19.3l70.6,145.7H1292.2z M1319.1,2440.5h106.5l-53.2-111.4L1319.1,2440.5z"/>
						</g>
						<path class="st0" d="M1012.8,2455.9v-8.7l16.3-6c1.3-0.5,2.3-1.1,2.9-1.8c0.6-0.7,1-1.8,1-3.3v-106.4c0-1.4-0.4-2.5-1.1-3.2
							c-0.8-0.7-1.6-1.2-2.7-1.6l-16.3-6v-8.7h74.1v8.7l-16.3,6c-1.1,0.4-2,1-2.8,1.7s-1.2,1.7-1.2,3.1v106.3c0,1.5,0.4,2.6,1.2,3.4
							c0.8,0.8,1.7,1.3,2.8,1.7l16.3,6v8.7H1012.8L1012.8,2455.9z"/>
						<path class="st0" d="M1105.9,2455.9v-8.7l16.3-6c1.3-0.5,2.3-1.1,2.9-1.8c0.6-0.7,1-1.8,1-3.3v-106.4c0-1.4-0.4-2.5-1.1-3.2
							s-1.6-1.2-2.7-1.6l-16.3-6v-8.7h74.1v8.7l-16.3,6c-1.1,0.4-2,1-2.8,1.7c-0.8,0.7-1.2,1.7-1.2,3.1v106.3c0,1.5,0.4,2.6,1.2,3.4
							c0.8,0.8,1.7,1.3,2.8,1.7l16.3,6v8.7H1105.9L1105.9,2455.9z"/>
						<path class="st0" d="M1199.1,2455.9v-8.7l16.3-6c1.3-0.5,2.3-1.1,2.9-1.8c0.6-0.7,1-1.8,1-3.3v-106.4c0-1.4-0.4-2.5-1.1-3.2
							c-0.8-0.7-1.6-1.2-2.7-1.6l-16.3-6v-8.7h74.1v8.7l-16.3,6c-1.1,0.4-2,1-2.8,1.7c-0.8,0.7-1.2,1.7-1.2,3.1v106.3
							c0,1.5,0.4,2.6,1.2,3.4c0.8,0.8,1.7,1.3,2.8,1.7l16.3,6v8.7H1199.1L1199.1,2455.9z"/>
					</g>
					<g>
						<polygon class="st0" points="1278.9,2381.4 1018.4,2381.4 1018.4,2391.5 1278.9,2391.5 1292.2,2386.4 						"/>
						<path class="st0" d="M1018.4,2398.6v-7.1v-10.1v-13.7h-10.1v13.7h-31v-5.1h-10.1v11.1v11.1h10.1v-7.1h31v7.1H1018.4z"/>
					</g>
				</g>
				<g>
					<path class="st0" d="M1596.5,2265.6c-19.6-32.5-47.4-58.4-83.3-77.6c-35.9-19.2-78.3-28.9-127.3-28.9H992.5
						c-5,0-8.7-1.3-11.3-3.9c-2.5-2.6-4.6-6-6.4-10.3l-22.1-57.4h-32.3V2365h32.3l22.1-66.8c1.2-4.3,3.2-7.7,5.8-10.3
						c2.6-2.6,6.6-3.9,11.8-3.9h387.8c40,0,73.2,1,99.6,3c26.4,2,42.9,4.7,49.7,8.2c5.2,2.5,8.9,5.8,10.9,10c2,4.1,3,9.6,3,16.3
						c0,8.8-2.2,20.5-6.6,35.1c-4.4,14.6-9.4,29.2-15.2,43.7c-5.8,14.5-10.5,26.2-14.3,35.3v22.5c-5.2,1.6-10.4,3.2-15.4,4.9
						c-121.8,38.5-85.2,196.5-204,222.6c67.2,7.3,129.6-44.6,139.1-109c8.6-30.8,5.7-66.9,38.1-87.3c41.5-25.6,94.1-24.1,144.1-23.5
						l3.9,0.1c1.7-8,3.6-17.8,5.6-29.2c2-11.5,3.7-22.9,5.1-34.1c1.4-11.3,2.1-20.5,2.1-27.7
						C1626,2334.5,1616.1,2298.1,1596.5,2265.6z"/>
					<path class="st0" d="M856.5,2277c-4.9-29.7-11.9-59.9-9.8-91.4c-33.4,67.5-31,98.5,6.5,164.2
						C854,2325.3,859.1,2301.9,856.5,2277z"/>
					<path class="st0" d="M891.6,2443.4c-17.5-56.2,21.6-130.2-26.3-176.8c18.7,44.2-16.6,95.8,7.1,139.5l-1,0.1
						c-6.8-10.7-10.7-22.6-17-33.4c-15.9-30.3-45.2-56.6-38.1-94.7c-8.7,14.6-11.9,32-10,50.3
						C807.4,2379.4,861.4,2407.6,891.6,2443.4z"/>
					<path class="st0" d="M897.1,2353.5c3.2,7.3,4.2,15.4,4.7,23.9c-3.2,41.9-4.1,84.4,23.7,116.2c-0.5,1.2-1.4,0.2-1.9,0.3
						l-28.4-33c-29.2-30.7-76.7-49.6-85.7-93.2c1,35.8,15,70.7,41.9,97.1c31,35.2,75.6,37.3,109.2,66.2
						C923.7,2478.5,941.2,2403.3,897.1,2353.5z"/>
					<path class="st0" d="M1060.5,2596.4c-14.3-10.6-28.6-23.1-36.9-38.5c-23.9-42.9-47.4-91.5-84.7-124.2
						c27.6,48.7,19.7,114.2,80.9,142.2c0.1,0.6,0.1,1.4-0.5,1.6c-15.5-6.1-28.7-17.7-43.5-25.9c-38.7-23-88.3-24.7-116.9-67.2
						c4.1,11.4,11.3,21.6,17.8,31.9c17.6,25.8,44.8,45,70.8,58.9C980.6,2592.3,1024.1,2588,1060.5,2596.4z"/>
					<path class="st0" d="M1182.8,2622.9c-67.7-18.3-109.8-88.7-174-111.5c48.3,42.6,44.6,88.5,120.1,106.8
						c-11.3,0.6-22.2-2.6-33.1-4.5c-50-12.4-110.5,8.2-151-26.8C1001.4,2665.8,1104.1,2642.6,1182.8,2622.9z"/>
					<path class="st0" d="M1297,2610.4c-75.2,4.4-118.8-56-202.9-55.2c57,23.3,89.3,77,159.4,65.7v0.7c-9.7,3.5-20.2,5.2-31.2,5.9
						c-57.8,5.7-108.8,49.6-170.5,25.7c36.6,26.3,89.7,30.4,133.9,19.8C1228.4,2665.5,1259.2,2629.5,1297,2610.4z"/>
					<path class="st0" d="M1394.5,2542c-53.1,42.8-126.5,21.9-187,35.6c56.2,11.3,86.7,40.6,144.3,3.8c-5.1,7-12.6,9.9-19.1,14.8
						c-49.4,31.4-87.5,92.5-152.4,88.3C1302.3,2713.5,1340.4,2625.6,1394.5,2542z"/>
				</g>
			</g>
		</g>
	</g>
	<path class="st1" d="M1800,79C1068.5,75.7,481.4,237.9,331.3,281.5l125.9,1779.1c32.6,242.9,41.9,572.8,233.3,882.1
		c219.1,353.8,739.8,574.1,1109.5,578.5c369.7-4.4,890.3-224.6,1109.5-578.5c191.5-309.2,200.8-639.2,233.3-882.1l125.9-1779.1
		C3118.6,237.9,2531.5,75.7,1800,79z M3069.7,2046.3c-30.8,229.7-39.6,541.6-220.6,834c-207.2,334.6-699.5,542.8-1049,547
		c-349.5-4.1-841.8-212.4-1049-547c-181-292.4-189.8-604.3-220.6-834L411.3,364.2c142-41.2,697.1-194.6,1388.7-191.4
		c691.7-3.2,1246.7,150.3,1388.7,191.4L3069.7,2046.3z"/>
</g>
<path class="st0" d="M1008.3,2395.6"/>
</svg>
