<?xml version="1.0" encoding="utf-8"?>
<!-- Generator: Adobe Illustrator 26.3.1, SVG Export Plug-In . SVG Version: 6.00 Build 0)  -->
<svg version="1.1" xmlns="http://www.w3.org/2000/svg" xmlns:xlink="http://www.w3.org/1999/xlink" x="0px" y="0px"
	 viewBox="0 0 360 360" style="enable-background:new 0 0 360 360;" xml:space="preserve">
<style type="text/css">
	.st0{display:none;}
	.st1{display:inline;fill:none;stroke:#EC1C24;stroke-miterlimit:10;}
	.st2{display:inline;fill:#0389A1;}
	.st3{fill:#0389A1;stroke:#000000;stroke-width:7;stroke-miterlimit:10;}
</style>
<g id="Guide" class="st0">
	<rect x="9.3" y="9.3" class="st1" width="341.4" height="341.4"/>
	<rect x="-151.4" y="144.4" class="st2" width="71.1" height="71.1"/>
</g>
<g id="Layer_1">
	<path class="st3" d="M244.1,281.9c10.2-3.9,19.8-8.6,29-14.1c0-0.4-0.4-0.6-0.7-0.8c-1.9-1.5-3.8-3-5.7-4.5
		c-0.4-0.3-0.7-0.4-1.2-0.2c-8,3.8-16.2,7.1-24.6,9.8c-8.6,2.8-17.3,5-26.2,6.6c-5.7,1-11.4,1.8-17.1,2.3c-2.5,0.2-5,0.3-7.5,0.5
		c-5.1,0.4-10.3,0.3-15.4,0.2c-5.7-0.1-11.4-0.6-17-1.2c-5.9-0.7-11.8-1.6-17.6-2.8c-14.8-3.1-29.1-7.8-42.9-14
		c-1-0.4-1.9-0.9-2.9-1.3c-0.3-0.1-0.6-0.3-0.9,0c-2.2,1.8-4.4,3.6-6.6,5.3c0.2,0.5,0.6,0.6,0.9,0.7c8.6,5.1,17.5,9.5,26.8,13.1
		c0.2,0.1,0.3,0.2,0.5,0.2c0.7,0.2,0.6,0.5,0.4,1c-0.9,1.8-1.8,3.6-2.7,5.3c-3.6,6.7-7.5,13.1-11.8,19.4c-1,1.4-2,2.8-3,4.3
		c-0.4,0.6-0.7,0.8-1.4,0.5c-6-1.9-11.9-4-17.7-6.2c-8.6-3.3-17.1-7.1-25.4-11.3c-8.6-4.4-17-9.3-25.2-14.5
		c-5.5-3.6-10.9-7.3-16.2-11.2c-0.8-0.6-1.2-1.2-1.3-2.3c-0.3-4.1-0.6-8.2-0.8-12.3c-0.6-8.6-0.4-17.2-0.3-25.8
		c0-3.9,0.3-7.9,0.6-11.8c0.2-2.4,0.4-4.9,0.6-7.4c0.4-4.6,0.9-9.2,1.6-13.8c0.9-6.1,1.9-12.2,3.2-18.3c2-9.4,4.4-18.7,7.3-27.8
		c3.6-11.4,8-22.6,12.9-33.5c5.1-11.2,10.8-22,17.1-32.5c2.6-4.3,5.2-8.5,7.9-12.7c0.4-0.7,1-1.1,1.7-1.5c7.7-3.5,15.4-6.7,23.4-9.6
		c9.2-3.3,18.5-6.1,27.9-8.4c5.7-1.4,11.4-2.6,17.2-3.6c0.8-0.1,1.1,0.1,1.4,0.7c3,5.5,5.8,11.2,8.2,17c0.4,0.9,0.4,0.9,1.4,0.8
		c3.5-0.5,7.1-1,10.6-1.3c2.6-0.2,5.1-0.5,7.7-0.7c3.6-0.3,7.2-0.5,10.8-0.7c1.9-0.1,3.7-0.1,5.6-0.1c3.7,0,7.5-0.1,11.2,0.1
		c3.6,0.2,7.2,0.3,10.8,0.6c3.9,0.3,7.9,0.7,11.8,1.1c2.3,0.3,4.5,0.6,6.8,0.9c0.3,0,0.7,0.1,1,0.1c0.5,0.1,0.7-0.2,0.9-0.6
		c1.3-3.1,2.7-6.1,4.2-9.2c1.3-2.8,2.7-5.5,4.2-8.2c0.3-0.5,0.6-0.7,1.2-0.6c11.9,2.1,23.5,5,35,8.6c11,3.5,21.8,7.6,32.4,12.4
		c1.4,0.6,2.5,1.4,3.4,2.7c4.3,6.7,8.5,13.4,12.4,20.4c7.5,13.4,14.1,27.2,19.5,41.5c2.9,7.8,5.6,15.6,7.9,23.6
		c2.6,9.1,4.8,18.4,6.5,27.8c1.1,6.1,2,12.2,2.7,18.4c0.4,3.5,0.7,6.9,1,10.4c0.4,4.6,0.6,9.2,0.8,13.9c0.1,2-0.1,3.9,0.2,5.9
		c0.3,2,0.4,4.1,0.2,6.1c-0.3,2.9,0,5.8-0.4,8.6c-0.1,1.1-0.1,2.3-0.1,3.4c-0.2,3.3-0.3,6.5-0.5,9.8c-0.1,2.1-0.4,4.1-0.5,6.2
		c0,0.7-0.5,1.1-1,1.4c-2.6,1.8-5.1,3.7-7.7,5.5c-8.4,5.9-17.2,11.3-26.2,16.3c-8.5,4.7-17.2,8.9-26.2,12.6
		c-7.8,3.3-15.7,6.2-23.7,8.7c-2.2,0.7-1.6,0.9-2.9-0.9c-4.9-6.7-9.2-13.8-13.3-21C246.9,287.3,245.5,284.7,244.1,281.9z
		 M267.2,192.9c0.1-6.3-1.3-12.2-4.2-17.8c-3.5-6.6-8.5-11.7-15.3-14.7c-5.3-2.4-10.9-2.9-16.6-1.8c-6.4,1.3-11.6,4.5-15.9,9.3
		c-6.3,7-9.1,15.4-9.3,24.7c-0.1,3.1,0.3,6.1,1,9.1c1.7,7.4,5.2,13.8,10.9,18.9c5.8,5.2,12.5,7.8,20.4,7.4c3.7-0.2,7.2-1.1,10.5-2.7
		c6.5-3.2,11.1-8.2,14.4-14.5C265.9,205.2,267.3,199.2,267.2,192.9z M123.2,158.2c-1,0-2,0-2.9,0c-0.7,0-1.4,0.2-2.1,0.3
		c-8,1.6-14.2,5.9-18.8,12.6c-6.6,9.6-8.3,20.1-5.6,31.4c1.9,7.9,5.9,14.5,12.4,19.5c6.1,4.7,13,6.8,20.6,5.8
		c7.5-1,13.7-4.7,18.6-10.4c5.6-6.7,8.2-14.5,8.6-23.1c0.2-3.1-0.1-6.2-0.7-9.2c-1.6-7.9-5.2-14.6-11.3-19.9
		C136.5,160.6,130.3,158.1,123.2,158.2z"/>
</g>
</svg>
