<?xml version="1.0" encoding="utf-8"?>
<!-- Generator: Adobe Illustrator 26.3.1, SVG Export Plug-In . SVG Version: 6.00 Build 0)  -->
<svg version="1.1" xmlns="http://www.w3.org/2000/svg" xmlns:xlink="http://www.w3.org/1999/xlink" x="0px" y="0px"
	 viewBox="0 0 360 360" style="enable-background:new 0 0 360 360;" xml:space="preserve">
<style type="text/css">
	.st0{display:none;}
	.st1{display:inline;fill:none;stroke:#EC1C24;stroke-miterlimit:10;}
	.st2{display:inline;fill:#0389A1;}
	.st3{fill:#0389A1;stroke:#000000;stroke-width:7;stroke-miterlimit:10;}
</style>
<g id="Guide" class="st0">
	<rect x="9.3" y="9.3" class="st1" width="341.4" height="341.4"/>
	<rect x="-151.4" y="144.4" class="st2" width="71.1" height="71.1"/>
</g>
<g id="Layer_1">
	<g>
		<path class="st3" d="M176.8,147.8c-4.2,1.2-7.7,3.1-10.6,5.8c-2.9,2.7-5.2,6-7,10c-1.8,4-3,8.5-3.8,13.4
			c-0.8,4.9-1.1,9.6-0.9,13.9c0.2,4.3,1.1,8.2,2.7,11.6c1.6,3.4,4.1,6.3,7.4,8.6c3.3,2.4,7.6,4,12.9,4.8c3.1,0.5,6,0.7,8.8,0.7
			c2.8,0,4.9-0.2,6.4-0.7c-0.1-1.4-0.1-3.5,0.2-6.1c0.2-2.7,0.6-5.2,0.9-7.6l8.3-52.1c-3.3-1.2-6.8-2.1-10.6-2.7
			C185.9,146.5,181,146.6,176.8,147.8z"/>
		<path class="st3" d="M180,9.9C85.7,9.9,9.3,86.4,9.3,180.6S85.7,351.4,180,351.4s170.7-76.4,170.7-170.7S274.3,9.9,180,9.9z
			 M293.1,184c-2,12.4-5.1,23.3-9.2,32.5c-4.2,9.2-9.3,16.6-15.3,22.3c-6.1,5.7-12.8,9.7-20.4,12c-7.5,2.3-15.6,2.8-24.3,1.4
			c-4.9-0.8-9.8-2.2-14.5-4.1c-4.8-2-8.5-4.8-11.3-8.3c-8.3,4.1-18.2,5.2-29.6,3.4c-8.5-1.4-16.1-3.9-22.8-7.7
			c-6.7-3.8-12.1-8.7-16.3-14.8c-4.2-6.1-7.1-13.2-8.6-21.4c-1.6-8.2-1.6-17.4,0.1-27.6c1.4-8.7,4.1-16.6,8.1-23.6
			c4-7,9.2-12.9,15.5-17.6c6.3-4.7,13.7-8,22.2-10c8.4-2,17.7-2.2,27.7-0.6c10.1,1.6,18.8,3.9,26.3,6.9c7.5,3,13.6,5.9,18.4,8.6
			l-12.7,80.2c-0.6,3.9-0.2,6.7,1.2,8.3c1.4,1.6,3.6,2.7,6.7,3.2c2.7,0.4,5.5,0.1,8.4-1c2.9-1.1,5.6-3.5,8.1-7.2
			c2.5-3.7,4.9-8.9,7.2-15.6c2.3-6.7,4.3-15.3,5.9-25.9c1.7-10.6,1.4-20.5-0.9-29.9c-2.3-9.4-6.4-17.7-12.3-25
			c-5.9-7.3-13.6-13.5-23-18.6c-9.4-5.1-20.4-8.6-33-10.6c-12.1-1.9-23.5-1.6-34.3,0.8c-10.8,2.5-20.5,6.9-29.1,13.3
			c-8.6,6.4-15.9,14.7-21.8,25c-5.9,10.2-9.9,22.2-12.1,35.8c-2.2,14.1-2.2,26.9,0.2,38.2c2.4,11.3,6.8,21.1,13.3,29.5
			c6.4,8.4,14.8,15.2,25,20.6c10.2,5.4,22.2,9.2,35.8,11.3c8.5,1.4,16.7,2.1,24.4,2.2c7.8,0.1,14.3,0,19.5-0.2l0,24.6
			c-4.5,0.7-11.2,1.1-20.1,1.3c-8.9,0.2-18.3-0.5-28-2.1c-16.4-2.6-31.3-7.2-45-13.7c-13.6-6.5-25.1-15.2-34.3-25.9
			c-9.2-10.7-15.8-23.6-19.7-38.6c-3.9-15-4.3-32.3-1.2-51.9c3-18.9,8.9-35,17.6-48.2c8.7-13.2,19.1-23.7,31.2-31.6
			c12.1-7.9,25.3-13.1,39.6-15.7c14.3-2.6,28.6-2.8,42.9-0.5c15.7,2.5,29.9,7,42.7,13.5c12.8,6.5,23.4,14.7,31.9,24.6
			c8.5,9.9,14.5,21.5,18.2,34.7C295.1,153.3,295.6,168,293.1,184z"/>
	</g>
</g>
</svg>
