<?xml version="1.0" encoding="utf-8"?>
<!-- Generator: Adobe Illustrator 26.3.1, SVG Export Plug-In . SVG Version: 6.00 Build 0)  -->
<svg version="1.1" xmlns="http://www.w3.org/2000/svg" xmlns:xlink="http://www.w3.org/1999/xlink" x="0px" y="0px"
	 viewBox="0 0 360 360" style="enable-background:new 0 0 360 360;" xml:space="preserve">
<style type="text/css">
	.st0{display:none;}
	.st1{display:inline;fill:none;stroke:#EC1C24;stroke-miterlimit:10;}
	.st2{display:inline;fill:#0389A1;}
	.st3{stroke:#000000;stroke-width:7;stroke-miterlimit:10;}
	.st4{fill:#0389A1;}
</style>
<g id="Guide" class="st0">
	<rect x="9.3" y="9.3" class="st1" width="341.4" height="341.4"/>
	<rect x="-151.4" y="144.4" class="st2" width="71.1" height="71.1"/>
</g>
<g id="Layer_1">
	<g>
		<g>
			<path class="st3" d="M9.3,206.2c0.3-1.3,0.7-3.4,1.4-5.4c15.6-48.2,31.3-96.4,47-144.6c2.8-8.6,5.6-17.2,8.4-25.8
				c1.7-5.2,3.8-7.3,7.3-7.3c3.5,0,5.7,2.1,7.4,7.2c11.8,36.2,23.6,72.3,35.2,108.6c1.2,3.7,2.7,5,6.8,5c38.5-0.2,77-0.1,115.5,0
				c3.2,0,4.7-0.9,5.7-4.1c11.6-36,23.3-72,35-107.9c0.4-1.3,0.9-2.6,1.3-3.8c1.2-3,3.3-4.9,6.6-4.9c3.3,0,5.4,2,6.5,5
				c2.5,7.5,5,15,7.4,22.5c11.4,35.1,22.8,70.2,34.2,105.3c4.8,14.9,9.7,29.9,14.5,44.8c2.6,8.1,1.1,13.1-5.9,18.2
				c-29.9,21.8-59.9,43.6-89.9,65.3c-23.4,17-46.8,33.9-70.1,51c-2.5,1.8-4.1,2-6.7,0.1c-32.3-23.6-64.6-47-97-70.5
				c-20.9-15.2-41.8-30.4-62.8-45.6C12.8,216.3,9.5,212.7,9.3,206.2z"/>
		</g>
		<path class="st4" d="M132.7,171.6c6.6,20.4,13.3,41.2,19.9,61.3l6.5,19.9c2,6.2,4,12.4,6,18.5c3.7,11.4,7.5,23.1,11.3,34.7
			c1.2,3.7,2.4,7.4,3.5,11.1c9.9-30.4,19.7-60.3,28.1-86c5.6-17.1,11.3-34.8,17.5-53.9c1.2-3.7,2.4-7.5,3.6-11.2
			c1.8-5.6,3.6-11.4,5.5-17.1c-36.5,0-73,0-109.5,0c1.4,4.5,2.9,9,4.4,13.4C130.6,165.3,131.7,168.5,132.7,171.6z"/>
		<path class="st4" d="M240.1,169.5L240.1,169.5c-1.2,3.8-2.4,7.5-3.6,11.2c-6.2,19.1-11.9,36.8-17.5,54
			c-7,21.6-15.1,46.4-23.5,72.2c4-5.2,8-10.3,11.9-15.3c1.8-2.3,3.6-4.6,5.4-6.9c5.4-6.9,10.8-13.8,16.2-20.7
			c6.5-8.2,12.9-16.4,19.3-24.7c5.3-6.8,10.6-13.5,15.8-20.3l0.4-0.5c4.3-5.6,8.6-11.1,13-16.7c6.6-8.5,13.3-17,19.9-25.4l0.1-0.2
			c5.3-6.8,10.6-13.5,15.9-20.3c1.8-2.3,3.5-4.5,5.2-6.7l-1.4,0c-23.5,0-47.1,0-70.6,0C244.4,156,242.2,162.8,240.1,169.5z"/>
		<path class="st4" d="M154.1,274.7c-2-6.1-4-12.2-6-18.3l-6.4-19.7c-6.6-20.1-13.3-40.9-20-61.5c-1-3-2-6.1-3.1-9.1
			c-1.9-5.5-3.8-11-5.4-16.8l-72-0.1c8.1,10.4,16.3,20.9,24.2,31.1l0.2,0.3c4.7,6,9.3,12,14,18c15.8,20.3,31.9,40.9,47.4,60.8
			l5.8,7.5c10.6,13.6,21.2,27.2,31.8,40.8c-3.5-10.9-7.1-22-10.6-32.7L154.1,274.7z"/>
		<path class="st4" d="M330.7,162c-0.7-2.2-1.4-4.4-2.2-6.5c-1.9,2.5-3.9,5.1-5.9,7.6c-5.2,6.6-10.4,13.3-15.6,19.9l-0.4,0.6
			c-6.6,8.5-13.3,16.9-19.9,25.4c-4.5,5.7-8.9,11.4-13.3,17.1l-0.2,0.2c-5.2,6.7-10.5,13.4-15.7,20.2c-6.4,8.2-12.9,16.5-19.4,24.7
			l-0.6,0.7c-5.2,6.6-10.4,13.3-15.7,20c-1.8,2.3-3.6,4.6-5.4,6.9c-2.5,3.1-4.9,6.3-7.4,9.5c23.3-16.9,46.6-33.9,70-50.8l11-8
			c16.9-12.2,33.7-24.5,50.5-36.7c4.7-3.4,4.5-6.3,3.7-8.8c-4.4-13.9-9.1-28-13.6-41.7L330.7,162z"/>
		<path class="st4" d="M38.3,134.1L38.3,134.1c-0.4,1.2-0.8,2.4-1.1,3.6c0.5,0,1.1,0,1.6,0l70.5,0.1c-6.4-20.2-13.1-40.7-19.5-60.5
			l0-0.1c-1.8-5.6-3.7-11.3-5.5-16.9l-2-6.2c-2.6-8.1-5.4-16.6-8.1-24.8c-0.2-0.7-0.6-1.1-0.8-1.1c-0.2-0.1-0.5,0.1-0.7,0.3
			c-0.2,0.2-0.6,1.4-0.8,2c-0.1,0.3-0.2,0.6-0.3,0.8L71.4,32C63,57.5,54.4,83.9,46,109.9C43.4,118,40.8,126.2,38.3,134.1z"/>
		<path class="st4" d="M252.7,131.1l-0.1,0.2c-0.7,2.1-1.4,4.3-2,6.4c22.2,0,44.5,0,66.7,0l5.4,0l0-0.1c-1.6-5.1-3.4-10.9-5.2-16.5
			c-9.3-28.7-19.2-59.2-29.3-90.4l-0.1-0.4c-0.2-0.6-0.6-1.8-0.8-2c-0.4-0.3-0.6-0.3-0.6-0.3c-0.2,0.1-0.6,0.5-0.9,1.5
			c-8.2,24.9-16.1,49.2-23.6,72.4C258.9,111.6,255.8,121.5,252.7,131.1z"/>
		<path class="st4" d="M16,202.5c-1.6,4.9-0.8,7.2,3.5,10.3l10,7.3c39.6,28.8,80.4,58.4,120.7,87.7c-8.8-11.2-17.5-22.5-26.3-33.7
			l-5.8-7.4c-15.5-19.9-31.5-40.4-47.5-60.9c-4.7-6-9.3-12-14-18l-0.2-0.3c-8.2-10.5-16.6-21.3-25-32.1l-2.2,6.7
			C24.9,175.2,20.4,188.9,16,202.5z"/>
	</g>
</g>
</svg>
