<?xml version="1.0" encoding="utf-8"?>
<!-- Generator: Adobe Illustrator 26.3.1, SVG Export Plug-In . SVG Version: 6.00 Build 0)  -->
<svg version="1.1" xmlns="http://www.w3.org/2000/svg" xmlns:xlink="http://www.w3.org/1999/xlink" x="0px" y="0px"
	 viewBox="0 0 360 360" style="enable-background:new 0 0 360 360;" xml:space="preserve">
<style type="text/css">
	.st0{display:none;}
	.st1{display:inline;fill:none;stroke:#EC1C24;stroke-miterlimit:10;}
	.st2{display:inline;fill:#0389A1;}
	.st3{fill:#0389A1;stroke:#000000;stroke-width:7;stroke-miterlimit:10;}
</style>
<g id="Guide" class="st0">
	<rect x="9.3" y="9.3" class="st1" width="341.4" height="341.4"/>
	<rect x="-151.4" y="144.4" class="st2" width="71.1" height="71.1"/>
</g>
<g id="Layer_1">
	<g id="LOGO">
		<path class="st3" d="M345,145.7l-0.5-1.2L298.1,23.2c-0.9-2.4-2.6-4.4-4.8-5.8c-4.4-2.8-10.1-2.4-14.2,0.8c-2,1.6-3.4,3.8-4.1,6.3
			l-31.4,96H116.5l-31.4-96C84.5,22,83,19.8,81,18.2c-4.1-3.2-9.8-3.5-14.2-0.8c-2.2,1.4-3.8,3.4-4.8,5.8L15.4,144.4l-0.5,1.2
			c-13.7,35.9-2.1,76.6,28.6,99.7l0.2,0.1l0.4,0.3l70.8,53l35,26.5l21.3,16.1c5.1,3.9,12.2,3.9,17.4,0l21.3-16.1l35-26.5l71.2-53.3
			l0.2-0.1C347.1,222.2,358.7,181.6,345,145.7z"/>
		<path class="st3" d="M345,145.7l-0.5-1.2c-22.6,4.6-44,14.2-62.5,28.1L180,249.8c34.8,26.3,65,49.1,65,49.1l71.2-53.3l0.2-0.1
			C347.1,222.3,358.7,181.6,345,145.7z"/>
		<path class="st3" d="M115,298.9l35,26.5l21.3,16.1c5.1,3.9,12.2,3.9,17.4,0l21.3-16.1l35-26.5c0,0-30.3-22.9-65-49.1
			C145.2,276,115,298.9,115,298.9z"/>
		<path class="st3" d="M77.9,172.6c-18.5-13.9-39.8-23.5-62.5-28.2l-0.5,1.2c-13.7,35.9-2.1,76.6,28.6,99.7l0.2,0.1l0.4,0.3l70.8,53
			c0,0,30.2-22.8,65-49.1L77.9,172.6z"/>
	</g>
</g>
</svg>
