<?xml version="1.0" encoding="utf-8"?>
<!-- Generator: Adobe Illustrator 26.3.1, SVG Export Plug-In . SVG Version: 6.00 Build 0)  -->
<svg version="1.1" xmlns="http://www.w3.org/2000/svg" xmlns:xlink="http://www.w3.org/1999/xlink" x="0px" y="0px"
	 viewBox="0 0 360 360" style="enable-background:new 0 0 360 360;" xml:space="preserve">
<style type="text/css">
	.st0{display:none;}
	.st1{display:inline;fill:none;stroke:#EC1C24;stroke-miterlimit:10;}
	.st2{display:inline;fill:#0389A1;}
	.st3{fill:#0389A1;stroke:#000000;stroke-width:7;stroke-miterlimit:10;}
</style>
<g id="Guide" class="st0">
	<rect x="9.3" y="9.3" class="st1" width="341.4" height="341.4"/>
	<rect x="-151.4" y="144.4" class="st2" width="71.1" height="71.1"/>
</g>
<g id="Layer_1">
	<g>
		<path class="st3" d="M9.3,179.8c0-56.3,0-112.7,0-169c0-1.2,0.3-1.5,1.5-1.5c112.8,0,225.6,0,338.4,0c1.2,0,1.5,0.3,1.5,1.5
			c0,112.8,0,225.6,0,338.4c0,1.2-0.3,1.5-1.5,1.5c-112.8,0-225.6,0-338.4,0c-1.2,0-1.5-0.3-1.5-1.5C9.3,292.7,9.3,236.3,9.3,179.8z
			 M142.7,218.5c0,7.9,0,15.8,0,23.7c0,18.1,0,36.2,0,54.3c0,2.7,0,2.7,2.8,2.7c6.1,0,12.2,0,18.3,0c8.8,0,17.6,0,26.3,0
			c2,0,2.2-0.2,2.2-2.2c0-1.8,0-3.7,0-5.5c0.2-26.3-0.3-52.7,0.3-79c0.1-5.1,0.9-10.1,2.3-14.9c2.3-7.6,6.2-13.9,13.7-17.3
			c7.6-3.4,15.5-3.8,23.5-1.5c8.3,2.4,12.6,8.6,14.9,16.6c1.7,5.8,2.3,11.8,2.3,17.8c0.1,27.9,0,55.8,0,83.7c0,2.4,0.1,2.4,2.4,2.4
			c15,0,30,0,45,0c2.8,0,2.8,0,2.8-2.7c0-25.9,0-51.9,0-77.8c0-9.3-0.1-18.7-0.9-28c-0.9-9-2.5-17.9-5.9-26.4
			c-5.1-12.6-13.8-21.7-26.7-26.3c-13.1-4.7-26.6-5.6-40.2-2.8c-12,2.5-22,8.5-29.8,18c-1.5,1.8-2.8,3.8-3.9,5.8
			c-0.2,0.4-0.5,0.8-1,0.7c-0.7-0.1-0.6-0.7-0.7-1.2c0-0.6,0-1.1,0-1.7c0-5.5,0-11,0-16.5c0-2.6-0.1-2.7-2.7-2.7
			c-14.1,0-28.1,0-42.2,0c-0.4,0-0.8,0-1.2,0c-1.1,0-1.6,0.5-1.6,1.6c0,0.6,0,1.2,0,1.8C142.7,167,142.7,192.7,142.7,218.5z
			 M60.7,218.4c0,26.1,0,52.2,0,78.3c0,2.5,0,2.5,2.5,2.5c15,0,30,0,45,0c2.4,0,2.4-0.1,2.4-2.4c0-52.2,0-104.4,0-156.6
			c0-2.4-0.1-2.5-2.6-2.5c-14.9,0-29.8,0-44.7,0c-2.6,0-2.7,0-2.7,2.7C60.7,166.4,60.7,192.4,60.7,218.4z M85.9,115.3
			c16.1,0,29.2-13.1,29.1-29.2c-0.1-15.6-12.5-28.9-29.2-28.9c-16.3,0-29,12.8-28.9,29.1C56.9,103.1,70.3,115.2,85.9,115.3z"/>
	</g>
</g>
</svg>
