<?xml version="1.0" encoding="utf-8"?>
<!-- Generator: Adobe Illustrator 26.3.1, SVG Export Plug-In . SVG Version: 6.00 Build 0)  -->
<svg version="1.1" xmlns="http://www.w3.org/2000/svg" xmlns:xlink="http://www.w3.org/1999/xlink" x="0px" y="0px"
	 viewBox="0 0 360 360" style="enable-background:new 0 0 360 360;" xml:space="preserve">
<style type="text/css">
	.st0{display:none;}
	.st1{display:inline;fill:none;stroke:#EC1C24;stroke-miterlimit:10;}
	.st2{display:inline;fill:#0389A1;}
	.st3{fill:#0389A1;stroke:#000000;stroke-width:7;stroke-miterlimit:10;}
	.st4{fill:#1D9BF0;}
</style>
<g id="Guide" class="st0">
	<rect x="9.3" y="9.3" class="st1" width="341.4" height="341.4"/>
	<rect x="-151.4" y="144.4" class="st2" width="71.1" height="71.1"/>
</g>
<g id="Layer_1">
	<path class="st3" d="M350.7,74.4c-1.5,2.7-3.5,5.1-5.4,7.5c-8.1,10.5-17.5,19.6-28.1,27.5c-0.8,0.6-1,1.2-1,2.2
		c0.2,7.2,0.1,14.4-0.4,21.6c-1,14.1-3.6,27.9-7.5,41.4c-9,30.9-24.1,58.4-45.9,82.1c-25.9,28.3-57.5,47.1-94.8,56.3
		c-9.7,2.4-19.5,4-29.4,5c-10.9,1.1-21.8,1.3-32.8,0.7c-22.2-1.2-43.7-6-64.3-14.4c-10.6-4.3-20.8-9.5-30.5-15.6
		c-0.5-0.3-0.9-0.7-1.4-0.8l0,0c0.9-0.5,1.8-0.1,2.7,0c8.1,0.8,16.2,0.9,24.3,0.3c26.1-2,49.9-10.7,71.3-25.8c1.4-1,2.8-2.1,4.2-3.1
		c0.2-0.2,0.6-0.3,0.6-0.8c-18.2-0.8-34-7.2-47.2-19.9c-8.4-8-14.3-17.6-18-28.9c10.6,1.9,20.9,1.6,31.2-1.2
		c-16.2-3.7-29.8-11.8-40.2-24.8c-10.5-13-15.6-28-15.6-44.9c3.4,1.7,6.6,3.3,10,4.5c3.4,1.2,6.9,2.3,10.5,2.9
		c3.6,0.7,7.2,1.2,11.2,1.2c-18.5-13.3-28.9-30.9-30.8-53.3c-1.2-14.3,2.1-27.7,9.2-40.1c0.6,0.2,0.9,0.7,1.2,1.1
		c8.3,10.1,17.5,19.2,27.7,27.5c21.2,17.2,44.9,29.6,71.2,37.2c9.2,2.6,18.6,4.6,28.1,5.9c5.1,0.7,10.3,1.2,15.4,1.5
		c1.2,0.1,1.2,0.1,1-1.2c-1.1-5.2-1.7-10.4-1.5-15.7c0.4-17.3,6.2-32.5,17.6-45.5C203.4,53.2,216,45.8,231,42.6
		c23.5-5.1,47.9,2,65,19.4c0.9,0.9,1.6,1,2.8,0.8c14.5-3.1,28.3-8.3,41.2-15.7c0.5-0.3,0.9-0.6,1.7-0.8c-2.6,8.1-6.5,15.3-11.7,21.9
		c-5.2,6.6-11.4,12-18.5,16.6c1.5-0.2,2.9-0.4,4.4-0.6c11.8-1.9,23.1-5.1,34-9.8c0.2-0.1,0.4-0.2,0.7-0.2
		C350.6,74.2,350.7,74.3,350.7,74.4z"/>
	<path class="st4" d="M1412.4-611.6c0.7-0.5,1.6-1.1,2.3-0.3c0.8,0.9-0.1,1.4-0.9,1.8C1413.4-610.6,1412.9-611.1,1412.4-611.6z"/>
	<path class="st4" d="M-1051.5,931.8c0.3-0.6,0.5-1.1,0.8-1.7C-1049.3,931.5-1051.8,931-1051.5,931.8
		C-1051.5,931.8-1051.5,931.8-1051.5,931.8z"/>
</g>
</svg>
